<svg width="624" height="382" xmlns="http://www.w3.org/2000/svg" xmlns:xlink="http://www.w3.org/1999/xlink" xml:space="preserve" overflow="hidden"><g><path d="M0 0 623.933 0 623.933 382 0 382Z" fill="#FFFFFF" transform="scale(1.00011 1)"/><text fill="#1F2933" font-family="Arial,Arial_MSFontService,sans-serif" font-weight="700" font-size="22" transform="matrix(0.636735 0 0 0.636667 128.62 20)">Количество сравнений от размера массива </text><text fill="#1F2933" font-family="Arial,Arial_MSFontService,sans-serif" font-weight="700" font-size="22" transform="matrix(0.636735 0 0 0.636667 429.159 20)">(</text><text fill="#1F2933" font-family="Arial,Arial_MSFontService,sans-serif" font-weight="700" font-size="22" transform="matrix(0.636735 0 0 0.636667 433.616 20)">reversed</text><text fill="#1F2933" font-family="Arial,Arial_MSFontService,sans-serif" font-weight="700" font-size="22" transform="matrix(0.636735 0 0 0.636667 490.922 20)">)</text><path d="M60.4833 332.34 601.65 332.34" stroke="#1F2933" stroke-width="0.891333" fill="none" transform="scale(1.00011 1)"/><path d="M60.4833 44.5667 60.4833 332.34" stroke="#1F2933" stroke-width="0.891333" fill="none" transform="scale(1.00011 1)"/><path d="M60.4833 332.34 601.65 332.34" stroke="#D9DEE7" stroke-width="0.636667" fill="none" transform="scale(1.00011 1)"/><text fill="#4B5563" font-family="Arial,Arial_MSFontService,sans-serif" font-weight="400" font-size="13" transform="matrix(0.636735 0 0 0.636667 49.6653 336)">0</text><path d="M60.4833 274.785 601.65 274.785" stroke="#D9DEE7" stroke-width="0.636667" fill="none" transform="scale(1.00011 1)"/><text fill="#4B5563" font-family="Arial,Arial_MSFontService,sans-serif" font-weight="400" font-size="13" transform="matrix(0.636735 0 0 0.636667 38.2041 278)">10</text><text fill="#4B5563" font-family="Arial,Arial_MSFontService,sans-serif" font-weight="400" font-size="13" transform="matrix(0.636735 0 0 0.636667 47.1184 278)">M</text><path d="M60.4833 217.231 601.65 217.231" stroke="#D9DEE7" stroke-width="0.636667" fill="none" transform="scale(1.00011 1)"/><text fill="#4B5563" font-family="Arial,Arial_MSFontService,sans-serif" font-weight="400" font-size="13" transform="matrix(0.636735 0 0 0.636667 38.2041 220)">20</text><text fill="#4B5563" font-family="Arial,Arial_MSFontService,sans-serif" font-weight="400" font-size="13" transform="matrix(0.636735 0 0 0.636667 47.1184 220)">M</text><path d="M60.4833 159.676 601.65 159.676" stroke="#D9DEE7" stroke-width="0.636667" fill="none" transform="scale(1.00011 1)"/><text fill="#4B5563" font-family="Arial,Arial_MSFontService,sans-serif" font-weight="400" font-size="13" transform="matrix(0.636735 0 0 0.636667 38.2041 163)">30</text><text fill="#4B5563" font-family="Arial,Arial_MSFontService,sans-serif" font-weight="400" font-size="13" transform="matrix(0.636735 0 0 0.636667 47.1184 163)">M</text><path d="M60.4833 102.121 601.65 102.121" stroke="#D9DEE7" stroke-width="0.636667" fill="none" transform="scale(1.00011 1)"/><text fill="#4B5563" font-family="Arial,Arial_MSFontService,sans-serif" font-weight="400" font-size="13" transform="matrix(0.636735 0 0 0.636667 38.2041 105)">40</text><text fill="#4B5563" font-family="Arial,Arial_MSFontService,sans-serif" font-weight="400" font-size="13" transform="matrix(0.636735 0 0 0.636667 47.1184 105)">M</text><path d="M60.4833 44.5667 601.65 44.5667" stroke="#D9DEE7" stroke-width="0.636667" fill="none" transform="scale(1.00011 1)"/><text fill="#4B5563" font-family="Arial,Arial_MSFontService,sans-serif" font-weight="400" font-size="13" transform="matrix(0.636735 0 0 0.636667 38.2041 48)">50</text><text fill="#4B5563" font-family="Arial,Arial_MSFontService,sans-serif" font-weight="400" font-size="13" transform="matrix(0.636735 0 0 0.636667 47.1184 48)">M</text><path d="M60.4833 332.34 60.4833 336.797" stroke="#1F2933" stroke-width="0.636667" fill="none" transform="scale(1.00011 1)"/><text fill="#4B5563" font-family="Arial,Arial_MSFontService,sans-serif" font-weight="400" font-size="13" transform="matrix(0.636735 0 0 0.636667 56.0327 349)">10</text><path d="M240.851 332.34 240.851 336.797" stroke="#1F2933" stroke-width="0.636667" fill="none" transform="scale(1.00011 1)"/><text fill="#4B5563" font-family="Arial,Arial_MSFontService,sans-serif" font-weight="400" font-size="13" transform="matrix(0.636735 0 0 0.636667 234.191 349)">100</text><path d="M366.975 332.34 366.975 336.797" stroke="#1F2933" stroke-width="0.636667" fill="none" transform="scale(1.00011 1)"/><text fill="#4B5563" font-family="Arial,Arial_MSFontService,sans-serif" font-weight="400" font-size="13" transform="matrix(0.636735 0 0 0.636667 360.328 349)">500</text><path d="M421.282 332.34 421.282 336.797" stroke="#1F2933" stroke-width="0.636667" fill="none" transform="scale(1.00011 1)"/><text fill="#4B5563" font-family="Arial,Arial_MSFontService,sans-serif" font-weight="400" font-size="13" transform="matrix(0.636735 0 0 0.636667 412.413 349)">1000</text><path d="M475.59 332.34 475.59 336.797" stroke="#1F2933" stroke-width="0.636667" fill="none" transform="scale(1.00011 1)"/><text fill="#4B5563" font-family="Arial,Arial_MSFontService,sans-serif" font-weight="400" font-size="13" transform="matrix(0.636735 0 0 0.636667 466.727 349)">2000</text><path d="M547.342 332.34 547.342 336.797" stroke="#1F2933" stroke-width="0.636667" fill="none" transform="scale(1.00011 1)"/><text fill="#4B5563" font-family="Arial,Arial_MSFontService,sans-serif" font-weight="400" font-size="13" transform="matrix(0.636735 0 0 0.636667 538.487 349)">5000</text><path d="M601.65 332.34 601.65 336.797" stroke="#1F2933" stroke-width="0.636667" fill="none" transform="scale(1.00011 1)"/><text fill="#4B5563" font-family="Arial,Arial_MSFontService,sans-serif" font-weight="400" font-size="13" transform="matrix(0.636735 0 0 0.636667 590.571 349)">10000</text><text fill="#1F2933" font-family="Arial,Arial_MSFontService,sans-serif" font-weight="700" font-size="16" transform="matrix(0.636735 0 0 0.636667 284.302 368)">Размер массива</text><text fill="#1F2933" font-family="Arial,Arial_MSFontService,sans-serif" font-weight="700" font-size="16" transform="matrix(0.636735 0 0 0.636667 366.441 368)">, </text><text fill="#1F2933" font-family="Arial,Arial_MSFontService,sans-serif" font-weight="700" font-size="16" transform="matrix(0.636735 0 0 0.636667 371.535 368)">n</text><text fill="#1F2933" font-family="Arial,Arial_MSFontService,sans-serif" font-weight="700" font-size="16" transform="matrix(3.89887e-17 -0.636667 0.636735 3.89846e-17 15.2816 248)">Количество сравнений</text><path d="M60.4833 332.34 240.851 332.34 366.975 331.64 421.282 329.475 475.59 320.816 547.342 260.397 601.65 44.5667" stroke="#1F77B4" stroke-width="1.91" fill="none" transform="scale(1.00011 1)"/><path d="M63.3483 332.34C63.3483 333.922 62.0656 335.205 60.4833 335.205 58.901 335.205 57.6183 333.922 57.6183 332.34 57.6183 330.758 58.901 329.475 60.4833 329.475 62.0656 329.475 63.3483 330.758 63.3483 332.34Z" stroke="#FFFFFF" stroke-width="0.955" fill="#1F77B4" transform="scale(1.00011 1)"/><path d="M243.716 332.34C243.716 333.922 242.433 335.205 240.851 335.205 239.269 335.205 237.986 333.922 237.986 332.34 237.986 330.758 239.269 329.475 240.851 329.475 242.433 329.475 243.716 330.758 243.716 332.34Z" stroke="#FFFFFF" stroke-width="0.955" fill="#1F77B4" transform="scale(1.00011 1)"/><path d="M369.84 331.64C369.84 333.222 368.557 334.505 366.975 334.505 365.392 334.505 364.11 333.222 364.11 331.64 364.11 330.057 365.392 328.775 366.975 328.775 368.557 328.775 369.84 330.057 369.84 331.64Z" stroke="#FFFFFF" stroke-width="0.955" fill="#1F77B4" transform="scale(1.00011 1)"/><path d="M424.147 329.475C424.147 331.057 422.865 332.34 421.282 332.34 419.7 332.34 418.417 331.057 418.417 329.475 418.417 327.893 419.7 326.61 421.282 326.61 422.865 326.61 424.147 327.893 424.147 329.475Z" stroke="#FFFFFF" stroke-width="0.955" fill="#1F77B4" transform="scale(1.00011 1)"/><path d="M478.455 320.816C478.455 322.399 477.172 323.681 475.59 323.681 474.008 323.681 472.725 322.399 472.725 320.816 472.725 319.234 474.008 317.951 475.59 317.951 477.172 317.951 478.455 319.234 478.455 320.816Z" stroke="#FFFFFF" stroke-width="0.955" fill="#1F77B4" transform="scale(1.00011 1)"/><path d="M550.207 260.397C550.207 261.979 548.925 263.262 547.342 263.262 545.76 263.262 544.477 261.979 544.477 260.397 544.477 258.814 545.76 257.532 547.342 257.532 548.925 257.532 550.207 258.814 550.207 260.397Z" stroke="#FFFFFF" stroke-width="0.955" fill="#1F77B4" transform="scale(1.00011 1)"/><path d="M604.515 44.5667C604.515 46.149 603.232 47.4317 601.65 47.4317 600.068 47.4317 598.785 46.149 598.785 44.5667 598.785 42.9844 600.068 41.7017 601.65 41.7017 603.232 41.7017 604.515 42.9844 604.515 44.5667Z" stroke="#FFFFFF" stroke-width="0.955" fill="#1F77B4" transform="scale(1.00011 1)"/><path d="M60.4833 332.34 240.851 332.34 366.975 331.64 421.282 329.475 475.59 320.816 547.342 260.397 601.65 44.6303" stroke="#D62728" stroke-width="1.91" fill="none" transform="scale(1.00011 1)"/><path d="M63.3483 332.34C63.3483 333.922 62.0656 335.205 60.4833 335.205 58.901 335.205 57.6183 333.922 57.6183 332.34 57.6183 330.758 58.901 329.475 60.4833 329.475 62.0656 329.475 63.3483 330.758 63.3483 332.34Z" stroke="#FFFFFF" stroke-width="0.955" fill="#D62728" transform="scale(1.00011 1)"/><path d="M243.716 332.34C243.716 333.922 242.433 335.205 240.851 335.205 239.269 335.205 237.986 333.922 237.986 332.34 237.986 330.758 239.269 329.475 240.851 329.475 242.433 329.475 243.716 330.758 243.716 332.34Z" stroke="#FFFFFF" stroke-width="0.955" fill="#D62728" transform="scale(1.00011 1)"/><path d="M369.84 331.64C369.84 333.222 368.557 334.505 366.975 334.505 365.392 334.505 364.11 333.222 364.11 331.64 364.11 330.057 365.392 328.775 366.975 328.775 368.557 328.775 369.84 330.057 369.84 331.64Z" stroke="#FFFFFF" stroke-width="0.955" fill="#D62728" transform="scale(1.00011 1)"/><path d="M424.147 329.475C424.147 331.057 422.865 332.34 421.282 332.34 419.7 332.34 418.417 331.057 418.417 329.475 418.417 327.893 419.7 326.61 421.282 326.61 422.865 326.61 424.147 327.893 424.147 329.475Z" stroke="#FFFFFF" stroke-width="0.955" fill="#D62728" transform="scale(1.00011 1)"/><path d="M478.455 320.816C478.455 322.399 477.172 323.681 475.59 323.681 474.008 323.681 472.725 322.399 472.725 320.816 472.725 319.234 474.008 317.951 475.59 317.951 477.172 317.951 478.455 319.234 478.455 320.816Z" stroke="#FFFFFF" stroke-width="0.955" fill="#D62728" transform="scale(1.00011 1)"/><path d="M550.207 260.397C550.207 261.979 548.925 263.262 547.342 263.262 545.76 263.262 544.477 261.979 544.477 260.397 544.477 258.814 545.76 257.532 547.342 257.532 548.925 257.532 550.207 258.814 550.207 260.397Z" stroke="#FFFFFF" stroke-width="0.955" fill="#D62728" transform="scale(1.00011 1)"/><path d="M604.515 44.6303C604.515 46.2126 603.232 47.4953 601.65 47.4953 600.068 47.4953 598.785 46.2126 598.785 44.6303 598.785 43.048 600.068 41.7653 601.65 41.7653 603.232 41.7653 604.515 43.048 604.515 44.6303Z" stroke="#FFFFFF" stroke-width="0.955" fill="#D62728" transform="scale(1.00011 1)"/><path d="M60.4833 332.34 240.851 332.34 366.975 331.64 421.282 329.475 475.59 320.816 547.342 260.397 601.65 44.6303" stroke="#2CA02C" stroke-width="1.91" fill="none" transform="scale(1.00011 1)"/><path d="M63.3483 332.34C63.3483 333.922 62.0656 335.205 60.4833 335.205 58.901 335.205 57.6183 333.922 57.6183 332.34 57.6183 330.758 58.901 329.475 60.4833 329.475 62.0656 329.475 63.3483 330.758 63.3483 332.34Z" stroke="#FFFFFF" stroke-width="0.955" fill="#2CA02C" transform="scale(1.00011 1)"/><path d="M243.716 332.34C243.716 333.922 242.433 335.205 240.851 335.205 239.269 335.205 237.986 333.922 237.986 332.34 237.986 330.758 239.269 329.475 240.851 329.475 242.433 329.475 243.716 330.758 243.716 332.34Z" stroke="#FFFFFF" stroke-width="0.955" fill="#2CA02C" transform="scale(1.00011 1)"/><path d="M369.84 331.64C369.84 333.222 368.557 334.505 366.975 334.505 365.392 334.505 364.11 333.222 364.11 331.64 364.11 330.057 365.392 328.775 366.975 328.775 368.557 328.775 369.84 330.057 369.84 331.64Z" stroke="#FFFFFF" stroke-width="0.955" fill="#2CA02C" transform="scale(1.00011 1)"/><path d="M424.147 329.475C424.147 331.057 422.865 332.34 421.282 332.34 419.7 332.34 418.417 331.057 418.417 329.475 418.417 327.893 419.7 326.61 421.282 326.61 422.865 326.61 424.147 327.893 424.147 329.475Z" stroke="#FFFFFF" stroke-width="0.955" fill="#2CA02C" transform="scale(1.00011 1)"/><path d="M478.455 320.816C478.455 322.399 477.172 323.681 475.59 323.681 474.008 323.681 472.725 322.399 472.725 320.816 472.725 319.234 474.008 317.951 475.59 317.951 477.172 317.951 478.455 319.234 478.455 320.816Z" stroke="#FFFFFF" stroke-width="0.955" fill="#2CA02C" transform="scale(1.00011 1)"/><path d="M550.207 260.397C550.207 261.979 548.925 263.262 547.342 263.262 545.76 263.262 544.477 261.979 544.477 260.397 544.477 258.814 545.76 257.532 547.342 257.532 548.925 257.532 550.207 258.814 550.207 260.397Z" stroke="#FFFFFF" stroke-width="0.955" fill="#2CA02C" transform="scale(1.00011 1)"/><path d="M604.515 44.6303C604.515 46.2126 603.232 47.4953 601.65 47.4953 600.068 47.4953 598.785 46.2126 598.785 44.6303 598.785 43.048 600.068 41.7653 601.65 41.7653 603.232 41.7653 604.515 43.048 604.515 44.6303Z" stroke="#FFFFFF" stroke-width="0.955" fill="#2CA02C" transform="scale(1.00011 1)"/><path d="M222.833 34.38 240.66 34.38" stroke="#1F77B4" stroke-width="2.54667" fill="none" transform="scale(1.00011 1)"/><text fill="#1F2933" font-family="Arial,Arial_MSFontService,sans-serif" font-weight="400" font-size="14" transform="matrix(0.636735 0 0 0.636667 245.78 38)">classic</text><path d="M286.5 34.38 304.327 34.38" stroke="#D62728" stroke-width="2.54667" fill="none" transform="scale(1.00011 1)"/><text fill="#1F2933" font-family="Arial,Arial_MSFontService,sans-serif" font-weight="400" font-size="14" transform="matrix(0.636735 0 0 0.636667 309.453 38)">flag</text><path d="M350.167 34.38 367.993 34.38" stroke="#2CA02C" stroke-width="2.54667" fill="none" transform="scale(1.00011 1)"/><text fill="#1F2933" font-family="Arial,Arial_MSFontService,sans-serif" font-weight="400" font-size="14" transform="matrix(0.636735 0 0 0.636667 373.127 38)">bound</text><text fill="#6B7280" font-family="Arial,Arial_MSFontService,sans-serif" font-weight="400" font-size="11" transform="matrix(0.636735 0 0 0.636667 498.563 377)">ось </text><text fill="#6B7280" font-family="Arial,Arial_MSFontService,sans-serif" font-weight="400" font-size="11" transform="matrix(0.636735 0 0 0.636667 511.935 377)">X</text><text fill="#6B7280" font-family="Arial,Arial_MSFontService,sans-serif" font-weight="400" font-size="11" transform="matrix(0.636735 0 0 0.636667 516.392 377)">: </text><text fill="#6B7280" font-family="Arial,Arial_MSFontService,sans-serif" font-weight="400" font-size="11" transform="matrix(0.636735 0 0 0.636667 520.212 377)">логарифмическая шкала</text></g></svg>