<svg width="624" height="382" xmlns="http://www.w3.org/2000/svg" xmlns:xlink="http://www.w3.org/1999/xlink" xml:space="preserve" overflow="hidden"><g><path d="M0 0 623.933 0 623.933 382 0 382Z" fill="#FFFFFF" transform="scale(1.00011 1)"/><text fill="#1F2933" font-family="Arial,Arial_MSFontService,sans-serif" font-weight="700" font-size="22" transform="matrix(0.636735 0 0 0.636667 143.265 20)">Количество обменов от размера массива </text><text fill="#1F2933" font-family="Arial,Arial_MSFontService,sans-serif" font-weight="700" font-size="22" transform="matrix(0.636735 0 0 0.636667 430.433 20)">(</text><text fill="#1F2933" font-family="Arial,Arial_MSFontService,sans-serif" font-weight="700" font-size="22" transform="matrix(0.636735 0 0 0.636667 434.89 20)">sorted</text><text fill="#1F2933" font-family="Arial,Arial_MSFontService,sans-serif" font-weight="700" font-size="22" transform="matrix(0.636735 0 0 0.636667 476.278 20)">)</text><path d="M60.4833 332.34 601.65 332.34" stroke="#1F2933" stroke-width="0.891333" fill="none" transform="scale(1.00011 1)"/><path d="M60.4833 44.5667 60.4833 332.34" stroke="#1F2933" stroke-width="0.891333" fill="none" transform="scale(1.00011 1)"/><path d="M60.4833 332.34 601.65 332.34" stroke="#D9DEE7" stroke-width="0.636667" fill="none" transform="scale(1.00011 1)"/><text fill="#4B5563" font-family="Arial,Arial_MSFontService,sans-serif" font-weight="400" font-size="13" transform="matrix(0.636735 0 0 0.636667 49.6653 336)">0</text><path d="M60.4833 44.5667 601.65 44.5667" stroke="#D9DEE7" stroke-width="0.636667" fill="none" transform="scale(1.00011 1)"/><text fill="#4B5563" font-family="Arial,Arial_MSFontService,sans-serif" font-weight="400" font-size="13" transform="matrix(0.636735 0 0 0.636667 49.6653 48)">1</text><path d="M60.4833 332.34 60.4833 336.797" stroke="#1F2933" stroke-width="0.636667" fill="none" transform="scale(1.00011 1)"/><text fill="#4B5563" font-family="Arial,Arial_MSFontService,sans-serif" font-weight="400" font-size="13" transform="matrix(0.636735 0 0 0.636667 56.0327 349)">10</text><path d="M240.851 332.34 240.851 336.797" stroke="#1F2933" stroke-width="0.636667" fill="none" transform="scale(1.00011 1)"/><text fill="#4B5563" font-family="Arial,Arial_MSFontService,sans-serif" font-weight="400" font-size="13" transform="matrix(0.636735 0 0 0.636667 234.191 349)">100</text><path d="M366.975 332.34 366.975 336.797" stroke="#1F2933" stroke-width="0.636667" fill="none" transform="scale(1.00011 1)"/><text fill="#4B5563" font-family="Arial,Arial_MSFontService,sans-serif" font-weight="400" font-size="13" transform="matrix(0.636735 0 0 0.636667 360.328 349)">500</text><path d="M421.282 332.34 421.282 336.797" stroke="#1F2933" stroke-width="0.636667" fill="none" transform="scale(1.00011 1)"/><text fill="#4B5563" font-family="Arial,Arial_MSFontService,sans-serif" font-weight="400" font-size="13" transform="matrix(0.636735 0 0 0.636667 412.413 349)">1000</text><path d="M475.59 332.34 475.59 336.797" stroke="#1F2933" stroke-width="0.636667" fill="none" transform="scale(1.00011 1)"/><text fill="#4B5563" font-family="Arial,Arial_MSFontService,sans-serif" font-weight="400" font-size="13" transform="matrix(0.636735 0 0 0.636667 466.727 349)">2000</text><path d="M547.342 332.34 547.342 336.797" stroke="#1F2933" stroke-width="0.636667" fill="none" transform="scale(1.00011 1)"/><text fill="#4B5563" font-family="Arial,Arial_MSFontService,sans-serif" font-weight="400" font-size="13" transform="matrix(0.636735 0 0 0.636667 538.487 349)">5000</text><path d="M601.65 332.34 601.65 336.797" stroke="#1F2933" stroke-width="0.636667" fill="none" transform="scale(1.00011 1)"/><text fill="#4B5563" font-family="Arial,Arial_MSFontService,sans-serif" font-weight="400" font-size="13" transform="matrix(0.636735 0 0 0.636667 590.571 349)">10000</text><text fill="#1F2933" font-family="Arial,Arial_MSFontService,sans-serif" font-weight="700" font-size="16" transform="matrix(0.636735 0 0 0.636667 284.302 368)">Размер массива</text><text fill="#1F2933" font-family="Arial,Arial_MSFontService,sans-serif" font-weight="700" font-size="16" transform="matrix(0.636735 0 0 0.636667 366.441 368)">, </text><text fill="#1F2933" font-family="Arial,Arial_MSFontService,sans-serif" font-weight="700" font-size="16" transform="matrix(0.636735 0 0 0.636667 371.535 368)">n</text><text fill="#1F2933" font-family="Arial,Arial_MSFontService,sans-serif" font-weight="700" font-size="16" transform="matrix(3.89887e-17 -0.636667 0.636735 3.89846e-17 15.2816 242)">Количество обменов</text><path d="M60.4833 332.34 240.851 332.34 366.975 332.34 421.282 332.34 475.59 332.34 547.342 332.34 601.65 332.34" stroke="#1F77B4" stroke-width="1.91" fill="none" transform="scale(1.00011 1)"/><path d="M63.3483 332.34C63.3483 333.922 62.0656 335.205 60.4833 335.205 58.901 335.205 57.6183 333.922 57.6183 332.34 57.6183 330.758 58.901 329.475 60.4833 329.475 62.0656 329.475 63.3483 330.758 63.3483 332.34Z" stroke="#FFFFFF" stroke-width="0.955" fill="#1F77B4" transform="scale(1.00011 1)"/><path d="M243.716 332.34C243.716 333.922 242.433 335.205 240.851 335.205 239.269 335.205 237.986 333.922 237.986 332.34 237.986 330.758 239.269 329.475 240.851 329.475 242.433 329.475 243.716 330.758 243.716 332.34Z" stroke="#FFFFFF" stroke-width="0.955" fill="#1F77B4" transform="scale(1.00011 1)"/><path d="M369.84 332.34C369.84 333.922 368.557 335.205 366.975 335.205 365.392 335.205 364.11 333.922 364.11 332.34 364.11 330.758 365.392 329.475 366.975 329.475 368.557 329.475 369.84 330.758 369.84 332.34Z" stroke="#FFFFFF" stroke-width="0.955" fill="#1F77B4" transform="scale(1.00011 1)"/><path d="M424.147 332.34C424.147 333.922 422.865 335.205 421.282 335.205 419.7 335.205 418.417 333.922 418.417 332.34 418.417 330.758 419.7 329.475 421.282 329.475 422.865 329.475 424.147 330.758 424.147 332.34Z" stroke="#FFFFFF" stroke-width="0.955" fill="#1F77B4" transform="scale(1.00011 1)"/><path d="M478.455 332.34C478.455 333.922 477.172 335.205 475.59 335.205 474.008 335.205 472.725 333.922 472.725 332.34 472.725 330.758 474.008 329.475 475.59 329.475 477.172 329.475 478.455 330.758 478.455 332.34Z" stroke="#FFFFFF" stroke-width="0.955" fill="#1F77B4" transform="scale(1.00011 1)"/><path d="M550.207 332.34C550.207 333.922 548.925 335.205 547.342 335.205 545.76 335.205 544.477 333.922 544.477 332.34 544.477 330.758 545.76 329.475 547.342 329.475 548.925 329.475 550.207 330.758 550.207 332.34Z" stroke="#FFFFFF" stroke-width="0.955" fill="#1F77B4" transform="scale(1.00011 1)"/><path d="M604.515 332.34C604.515 333.922 603.232 335.205 601.65 335.205 600.068 335.205 598.785 333.922 598.785 332.34 598.785 330.758 600.068 329.475 601.65 329.475 603.232 329.475 604.515 330.758 604.515 332.34Z" stroke="#FFFFFF" stroke-width="0.955" fill="#1F77B4" transform="scale(1.00011 1)"/><path d="M60.4833 332.34 240.851 332.34 366.975 332.34 421.282 332.34 475.59 332.34 547.342 332.34 601.65 332.34" stroke="#D62728" stroke-width="1.91" fill="none" transform="scale(1.00011 1)"/><path d="M63.3483 332.34C63.3483 333.922 62.0656 335.205 60.4833 335.205 58.901 335.205 57.6183 333.922 57.6183 332.34 57.6183 330.758 58.901 329.475 60.4833 329.475 62.0656 329.475 63.3483 330.758 63.3483 332.34Z" stroke="#FFFFFF" stroke-width="0.955" fill="#D62728" transform="scale(1.00011 1)"/><path d="M243.716 332.34C243.716 333.922 242.433 335.205 240.851 335.205 239.269 335.205 237.986 333.922 237.986 332.34 237.986 330.758 239.269 329.475 240.851 329.475 242.433 329.475 243.716 330.758 243.716 332.34Z" stroke="#FFFFFF" stroke-width="0.955" fill="#D62728" transform="scale(1.00011 1)"/><path d="M369.84 332.34C369.84 333.922 368.557 335.205 366.975 335.205 365.392 335.205 364.11 333.922 364.11 332.34 364.11 330.758 365.392 329.475 366.975 329.475 368.557 329.475 369.84 330.758 369.84 332.34Z" stroke="#FFFFFF" stroke-width="0.955" fill="#D62728" transform="scale(1.00011 1)"/><path d="M424.147 332.34C424.147 333.922 422.865 335.205 421.282 335.205 419.7 335.205 418.417 333.922 418.417 332.34 418.417 330.758 419.7 329.475 421.282 329.475 422.865 329.475 424.147 330.758 424.147 332.34Z" stroke="#FFFFFF" stroke-width="0.955" fill="#D62728" transform="scale(1.00011 1)"/><path d="M478.455 332.34C478.455 333.922 477.172 335.205 475.59 335.205 474.008 335.205 472.725 333.922 472.725 332.34 472.725 330.758 474.008 329.475 475.59 329.475 477.172 329.475 478.455 330.758 478.455 332.34Z" stroke="#FFFFFF" stroke-width="0.955" fill="#D62728" transform="scale(1.00011 1)"/><path d="M550.207 332.34C550.207 333.922 548.925 335.205 547.342 335.205 545.76 335.205 544.477 333.922 544.477 332.34 544.477 330.758 545.76 329.475 547.342 329.475 548.925 329.475 550.207 330.758 550.207 332.34Z" stroke="#FFFFFF" stroke-width="0.955" fill="#D62728" transform="scale(1.00011 1)"/><path d="M604.515 332.34C604.515 333.922 603.232 335.205 601.65 335.205 600.068 335.205 598.785 333.922 598.785 332.34 598.785 330.758 600.068 329.475 601.65 329.475 603.232 329.475 604.515 330.758 604.515 332.34Z" stroke="#FFFFFF" stroke-width="0.955" fill="#D62728" transform="scale(1.00011 1)"/><path d="M60.4833 332.34 240.851 332.34 366.975 332.34 421.282 332.34 475.59 332.34 547.342 332.34 601.65 332.34" stroke="#2CA02C" stroke-width="1.91" fill="none" transform="scale(1.00011 1)"/><path d="M63.3483 332.34C63.3483 333.922 62.0656 335.205 60.4833 335.205 58.901 335.205 57.6183 333.922 57.6183 332.34 57.6183 330.758 58.901 329.475 60.4833 329.475 62.0656 329.475 63.3483 330.758 63.3483 332.34Z" stroke="#FFFFFF" stroke-width="0.955" fill="#2CA02C" transform="scale(1.00011 1)"/><path d="M243.716 332.34C243.716 333.922 242.433 335.205 240.851 335.205 239.269 335.205 237.986 333.922 237.986 332.34 237.986 330.758 239.269 329.475 240.851 329.475 242.433 329.475 243.716 330.758 243.716 332.34Z" stroke="#FFFFFF" stroke-width="0.955" fill="#2CA02C" transform="scale(1.00011 1)"/><path d="M369.84 332.34C369.84 333.922 368.557 335.205 366.975 335.205 365.392 335.205 364.11 333.922 364.11 332.34 364.11 330.758 365.392 329.475 366.975 329.475 368.557 329.475 369.84 330.758 369.84 332.34Z" stroke="#FFFFFF" stroke-width="0.955" fill="#2CA02C" transform="scale(1.00011 1)"/><path d="M424.147 332.34C424.147 333.922 422.865 335.205 421.282 335.205 419.7 335.205 418.417 333.922 418.417 332.34 418.417 330.758 419.7 329.475 421.282 329.475 422.865 329.475 424.147 330.758 424.147 332.34Z" stroke="#FFFFFF" stroke-width="0.955" fill="#2CA02C" transform="scale(1.00011 1)"/><path d="M478.455 332.34C478.455 333.922 477.172 335.205 475.59 335.205 474.008 335.205 472.725 333.922 472.725 332.34 472.725 330.758 474.008 329.475 475.59 329.475 477.172 329.475 478.455 330.758 478.455 332.34Z" stroke="#FFFFFF" stroke-width="0.955" fill="#2CA02C" transform="scale(1.00011 1)"/><path d="M550.207 332.34C550.207 333.922 548.925 335.205 547.342 335.205 545.76 335.205 544.477 333.922 544.477 332.34 544.477 330.758 545.76 329.475 547.342 329.475 548.925 329.475 550.207 330.758 550.207 332.34Z" stroke="#FFFFFF" stroke-width="0.955" fill="#2CA02C" transform="scale(1.00011 1)"/><path d="M604.515 332.34C604.515 333.922 603.232 335.205 601.65 335.205 600.068 335.205 598.785 333.922 598.785 332.34 598.785 330.758 600.068 329.475 601.65 329.475 603.232 329.475 604.515 330.758 604.515 332.34Z" stroke="#FFFFFF" stroke-width="0.955" fill="#2CA02C" transform="scale(1.00011 1)"/><path d="M222.833 34.38 240.66 34.38" stroke="#1F77B4" stroke-width="2.54667" fill="none" transform="scale(1.00011 1)"/><text fill="#1F2933" font-family="Arial,Arial_MSFontService,sans-serif" font-weight="400" font-size="14" transform="matrix(0.636735 0 0 0.636667 245.78 38)">classic</text><path d="M286.5 34.38 304.327 34.38" stroke="#D62728" stroke-width="2.54667" fill="none" transform="scale(1.00011 1)"/><text fill="#1F2933" font-family="Arial,Arial_MSFontService,sans-serif" font-weight="400" font-size="14" transform="matrix(0.636735 0 0 0.636667 309.453 38)">flag</text><path d="M350.167 34.38 367.993 34.38" stroke="#2CA02C" stroke-width="2.54667" fill="none" transform="scale(1.00011 1)"/><text fill="#1F2933" font-family="Arial,Arial_MSFontService,sans-serif" font-weight="400" font-size="14" transform="matrix(0.636735 0 0 0.636667 373.127 38)">bound</text><text fill="#6B7280" font-family="Arial,Arial_MSFontService,sans-serif" font-weight="400" font-size="11" transform="matrix(0.636735 0 0 0.636667 498.563 377)">ось </text><text fill="#6B7280" font-family="Arial,Arial_MSFontService,sans-serif" font-weight="400" font-size="11" transform="matrix(0.636735 0 0 0.636667 511.935 377)">X</text><text fill="#6B7280" font-family="Arial,Arial_MSFontService,sans-serif" font-weight="400" font-size="11" transform="matrix(0.636735 0 0 0.636667 516.392 377)">: </text><text fill="#6B7280" font-family="Arial,Arial_MSFontService,sans-serif" font-weight="400" font-size="11" transform="matrix(0.636735 0 0 0.636667 520.212 377)">логарифмическая шкала</text></g></svg>