<svg width="624" height="382" xmlns="http://www.w3.org/2000/svg" xmlns:xlink="http://www.w3.org/1999/xlink" xml:space="preserve" overflow="hidden"><g><path d="M0 0 623.933 0 623.933 382 0 382Z" fill="#FFFFFF" transform="scale(1.00011 1)"/><text fill="#1F2933" font-family="Arial,Arial_MSFontService,sans-serif" font-weight="700" font-size="22" transform="matrix(0.636735 0 0 0.636667 146.131 20)">Время работы</text><text fill="#1F2933" font-family="Arial,Arial_MSFontService,sans-serif" font-weight="700" font-size="22" transform="matrix(0.636735 0 0 0.636667 244.824 20)">, </text><text fill="#1F2933" font-family="Arial,Arial_MSFontService,sans-serif" font-weight="700" font-size="22" transform="matrix(0.636735 0 0 0.636667 252.465 20)">мкс от размера массива </text><text fill="#1F2933" font-family="Arial,Arial_MSFontService,sans-serif" font-weight="700" font-size="22" transform="matrix(0.636735 0 0 0.636667 419.29 20)">(</text><text fill="#1F2933" font-family="Arial,Arial_MSFontService,sans-serif" font-weight="700" font-size="22" transform="matrix(0.636735 0 0 0.636667 423.747 20)">random</text><text fill="#1F2933" font-family="Arial,Arial_MSFontService,sans-serif" font-weight="700" font-size="22" transform="matrix(0.636735 0 0 0.636667 473.412 20)">)</text><path d="M60.4833 332.34 601.65 332.34" stroke="#1F2933" stroke-width="0.891333" fill="none" transform="scale(1.00011 1)"/><path d="M60.4833 44.5667 60.4833 332.34" stroke="#1F2933" stroke-width="0.891333" fill="none" transform="scale(1.00011 1)"/><path d="M60.4833 332.34 601.65 332.34" stroke="#D9DEE7" stroke-width="0.636667" fill="none" transform="scale(1.00011 1)"/><text fill="#4B5563" font-family="Arial,Arial_MSFontService,sans-serif" font-weight="400" font-size="13" transform="matrix(0.636735 0 0 0.636667 49.6653 336)">0</text><path d="M60.4833 274.785 601.65 274.785" stroke="#D9DEE7" stroke-width="0.636667" fill="none" transform="scale(1.00011 1)"/><text fill="#4B5563" font-family="Arial,Arial_MSFontService,sans-serif" font-weight="400" font-size="13" transform="matrix(0.636735 0 0 0.636667 36.2939 278)">100</text><text fill="#4B5563" font-family="Arial,Arial_MSFontService,sans-serif" font-weight="400" font-size="13" transform="matrix(0.636735 0 0 0.636667 49.6653 278)">k</text><path d="M60.4833 217.231 601.65 217.231" stroke="#D9DEE7" stroke-width="0.636667" fill="none" transform="scale(1.00011 1)"/><text fill="#4B5563" font-family="Arial,Arial_MSFontService,sans-serif" font-weight="400" font-size="13" transform="matrix(0.636735 0 0 0.636667 36.2939 220)">200</text><text fill="#4B5563" font-family="Arial,Arial_MSFontService,sans-serif" font-weight="400" font-size="13" transform="matrix(0.636735 0 0 0.636667 49.6653 220)">k</text><path d="M60.4833 159.676 601.65 159.676" stroke="#D9DEE7" stroke-width="0.636667" fill="none" transform="scale(1.00011 1)"/><text fill="#4B5563" font-family="Arial,Arial_MSFontService,sans-serif" font-weight="400" font-size="13" transform="matrix(0.636735 0 0 0.636667 36.2939 163)">300</text><text fill="#4B5563" font-family="Arial,Arial_MSFontService,sans-serif" font-weight="400" font-size="13" transform="matrix(0.636735 0 0 0.636667 49.6653 163)">k</text><path d="M60.4833 102.121 601.65 102.121" stroke="#D9DEE7" stroke-width="0.636667" fill="none" transform="scale(1.00011 1)"/><text fill="#4B5563" font-family="Arial,Arial_MSFontService,sans-serif" font-weight="400" font-size="13" transform="matrix(0.636735 0 0 0.636667 36.2939 105)">400</text><text fill="#4B5563" font-family="Arial,Arial_MSFontService,sans-serif" font-weight="400" font-size="13" transform="matrix(0.636735 0 0 0.636667 49.6653 105)">k</text><path d="M60.4833 44.5667 601.65 44.5667" stroke="#D9DEE7" stroke-width="0.636667" fill="none" transform="scale(1.00011 1)"/><text fill="#4B5563" font-family="Arial,Arial_MSFontService,sans-serif" font-weight="400" font-size="13" transform="matrix(0.636735 0 0 0.636667 36.2939 48)">500</text><text fill="#4B5563" font-family="Arial,Arial_MSFontService,sans-serif" font-weight="400" font-size="13" transform="matrix(0.636735 0 0 0.636667 49.6653 48)">k</text><path d="M60.4833 332.34 60.4833 336.797" stroke="#1F2933" stroke-width="0.636667" fill="none" transform="scale(1.00011 1)"/><text fill="#4B5563" font-family="Arial,Arial_MSFontService,sans-serif" font-weight="400" font-size="13" transform="matrix(0.636735 0 0 0.636667 56.0327 349)">10</text><path d="M240.851 332.34 240.851 336.797" stroke="#1F2933" stroke-width="0.636667" fill="none" transform="scale(1.00011 1)"/><text fill="#4B5563" font-family="Arial,Arial_MSFontService,sans-serif" font-weight="400" font-size="13" transform="matrix(0.636735 0 0 0.636667 234.191 349)">100</text><path d="M366.975 332.34 366.975 336.797" stroke="#1F2933" stroke-width="0.636667" fill="none" transform="scale(1.00011 1)"/><text fill="#4B5563" font-family="Arial,Arial_MSFontService,sans-serif" font-weight="400" font-size="13" transform="matrix(0.636735 0 0 0.636667 360.328 349)">500</text><path d="M421.282 332.34 421.282 336.797" stroke="#1F2933" stroke-width="0.636667" fill="none" transform="scale(1.00011 1)"/><text fill="#4B5563" font-family="Arial,Arial_MSFontService,sans-serif" font-weight="400" font-size="13" transform="matrix(0.636735 0 0 0.636667 412.413 349)">1000</text><path d="M475.59 332.34 475.59 336.797" stroke="#1F2933" stroke-width="0.636667" fill="none" transform="scale(1.00011 1)"/><text fill="#4B5563" font-family="Arial,Arial_MSFontService,sans-serif" font-weight="400" font-size="13" transform="matrix(0.636735 0 0 0.636667 466.727 349)">2000</text><path d="M547.342 332.34 547.342 336.797" stroke="#1F2933" stroke-width="0.636667" fill="none" transform="scale(1.00011 1)"/><text fill="#4B5563" font-family="Arial,Arial_MSFontService,sans-serif" font-weight="400" font-size="13" transform="matrix(0.636735 0 0 0.636667 538.487 349)">5000</text><path d="M601.65 332.34 601.65 336.797" stroke="#1F2933" stroke-width="0.636667" fill="none" transform="scale(1.00011 1)"/><text fill="#4B5563" font-family="Arial,Arial_MSFontService,sans-serif" font-weight="400" font-size="13" transform="matrix(0.636735 0 0 0.636667 590.571 349)">10000</text><text fill="#1F2933" font-family="Arial,Arial_MSFontService,sans-serif" font-weight="700" font-size="16" transform="matrix(0.636735 0 0 0.636667 284.302 368)">Размер массива</text><text fill="#1F2933" font-family="Arial,Arial_MSFontService,sans-serif" font-weight="700" font-size="16" transform="matrix(0.636735 0 0 0.636667 366.441 368)">, </text><text fill="#1F2933" font-family="Arial,Arial_MSFontService,sans-serif" font-weight="700" font-size="16" transform="matrix(0.636735 0 0 0.636667 371.535 368)">n</text><text fill="#1F2933" font-family="Arial,Arial_MSFontService,sans-serif" font-weight="700" font-size="16" transform="matrix(3.89887e-17 -0.636667 0.636735 3.89846e-17 15.2816 237)">Время работы</text><text fill="#1F2933" font-family="Arial,Arial_MSFontService,sans-serif" font-weight="700" font-size="16" transform="matrix(3.89887e-17 -0.636667 0.636735 3.89846e-17 15.2816 163)">, </text><text fill="#1F2933" font-family="Arial,Arial_MSFontService,sans-serif" font-weight="700" font-size="16" transform="matrix(3.89887e-17 -0.636667 0.636735 3.89846e-17 15.2816 158)">мкс</text><path d="M60.4833 332.34 240.851 332.34 366.975 327.056 421.282 327.183 475.59 320.816 547.342 276.695 601.65 87.287" stroke="#1F77B4" stroke-width="1.91" fill="none" transform="scale(1.00011 1)"/><path d="M63.3483 332.34C63.3483 333.922 62.0656 335.205 60.4833 335.205 58.901 335.205 57.6183 333.922 57.6183 332.34 57.6183 330.758 58.901 329.475 60.4833 329.475 62.0656 329.475 63.3483 330.758 63.3483 332.34Z" stroke="#FFFFFF" stroke-width="0.955" fill="#1F77B4" transform="scale(1.00011 1)"/><path d="M243.716 332.34C243.716 333.922 242.433 335.205 240.851 335.205 239.269 335.205 237.986 333.922 237.986 332.34 237.986 330.758 239.269 329.475 240.851 329.475 242.433 329.475 243.716 330.758 243.716 332.34Z" stroke="#FFFFFF" stroke-width="0.955" fill="#1F77B4" transform="scale(1.00011 1)"/><path d="M369.84 327.056C369.84 328.638 368.557 329.921 366.975 329.921 365.392 329.921 364.11 328.638 364.11 327.056 364.11 325.473 365.392 324.191 366.975 324.191 368.557 324.191 369.84 325.473 369.84 327.056Z" stroke="#FFFFFF" stroke-width="0.955" fill="#1F77B4" transform="scale(1.00011 1)"/><path d="M424.147 327.183C424.147 328.765 422.865 330.048 421.282 330.048 419.7 330.048 418.417 328.765 418.417 327.183 418.417 325.601 419.7 324.318 421.282 324.318 422.865 324.318 424.147 325.601 424.147 327.183Z" stroke="#FFFFFF" stroke-width="0.955" fill="#1F77B4" transform="scale(1.00011 1)"/><path d="M478.455 320.816C478.455 322.399 477.172 323.681 475.59 323.681 474.008 323.681 472.725 322.399 472.725 320.816 472.725 319.234 474.008 317.951 475.59 317.951 477.172 317.951 478.455 319.234 478.455 320.816Z" stroke="#FFFFFF" stroke-width="0.955" fill="#1F77B4" transform="scale(1.00011 1)"/><path d="M550.207 276.695C550.207 278.278 548.925 279.56 547.342 279.56 545.76 279.56 544.477 278.278 544.477 276.695 544.477 275.113 545.76 273.83 547.342 273.83 548.925 273.83 550.207 275.113 550.207 276.695Z" stroke="#FFFFFF" stroke-width="0.955" fill="#1F77B4" transform="scale(1.00011 1)"/><path d="M604.515 87.287C604.515 88.8693 603.232 90.152 601.65 90.152 600.068 90.152 598.785 88.8693 598.785 87.287 598.785 85.7047 600.068 84.422 601.65 84.422 603.232 84.422 604.515 85.7047 604.515 87.287Z" stroke="#FFFFFF" stroke-width="0.955" fill="#1F77B4" transform="scale(1.00011 1)"/><path d="M60.4833 332.34 240.851 332.34 366.975 332.34 421.282 332.34 475.59 324.254 547.342 241.997 601.65 63.603" stroke="#D62728" stroke-width="1.91" fill="none" transform="scale(1.00011 1)"/><path d="M63.3483 332.34C63.3483 333.922 62.0656 335.205 60.4833 335.205 58.901 335.205 57.6183 333.922 57.6183 332.34 57.6183 330.758 58.901 329.475 60.4833 329.475 62.0656 329.475 63.3483 330.758 63.3483 332.34Z" stroke="#FFFFFF" stroke-width="0.955" fill="#D62728" transform="scale(1.00011 1)"/><path d="M243.716 332.34C243.716 333.922 242.433 335.205 240.851 335.205 239.269 335.205 237.986 333.922 237.986 332.34 237.986 330.758 239.269 329.475 240.851 329.475 242.433 329.475 243.716 330.758 243.716 332.34Z" stroke="#FFFFFF" stroke-width="0.955" fill="#D62728" transform="scale(1.00011 1)"/><path d="M369.84 332.34C369.84 333.922 368.557 335.205 366.975 335.205 365.392 335.205 364.11 333.922 364.11 332.34 364.11 330.758 365.392 329.475 366.975 329.475 368.557 329.475 369.84 330.758 369.84 332.34Z" stroke="#FFFFFF" stroke-width="0.955" fill="#D62728" transform="scale(1.00011 1)"/><path d="M424.147 332.34C424.147 333.922 422.865 335.205 421.282 335.205 419.7 335.205 418.417 333.922 418.417 332.34 418.417 330.758 419.7 329.475 421.282 329.475 422.865 329.475 424.147 330.758 424.147 332.34Z" stroke="#FFFFFF" stroke-width="0.955" fill="#D62728" transform="scale(1.00011 1)"/><path d="M478.455 324.254C478.455 325.837 477.172 327.119 475.59 327.119 474.008 327.119 472.725 325.837 472.725 324.254 472.725 322.672 474.008 321.389 475.59 321.389 477.172 321.389 478.455 322.672 478.455 324.254Z" stroke="#FFFFFF" stroke-width="0.955" fill="#D62728" transform="scale(1.00011 1)"/><path d="M550.207 241.997C550.207 243.579 548.925 244.862 547.342 244.862 545.76 244.862 544.477 243.579 544.477 241.997 544.477 240.415 545.76 239.132 547.342 239.132 548.925 239.132 550.207 240.415 550.207 241.997Z" stroke="#FFFFFF" stroke-width="0.955" fill="#D62728" transform="scale(1.00011 1)"/><path d="M604.515 63.603C604.515 65.1853 603.232 66.468 601.65 66.468 600.068 66.468 598.785 65.1853 598.785 63.603 598.785 62.0207 600.068 60.738 601.65 60.738 603.232 60.738 604.515 62.0207 604.515 63.603Z" stroke="#FFFFFF" stroke-width="0.955" fill="#D62728" transform="scale(1.00011 1)"/><path d="M60.4833 332.34 240.851 332.34 366.975 332.34 421.282 332.34 475.59 323.49 547.342 280.006 601.65 95.882" stroke="#2CA02C" stroke-width="1.91" fill="none" transform="scale(1.00011 1)"/><path d="M63.3483 332.34C63.3483 333.922 62.0656 335.205 60.4833 335.205 58.901 335.205 57.6183 333.922 57.6183 332.34 57.6183 330.758 58.901 329.475 60.4833 329.475 62.0656 329.475 63.3483 330.758 63.3483 332.34Z" stroke="#FFFFFF" stroke-width="0.955" fill="#2CA02C" transform="scale(1.00011 1)"/><path d="M243.716 332.34C243.716 333.922 242.433 335.205 240.851 335.205 239.269 335.205 237.986 333.922 237.986 332.34 237.986 330.758 239.269 329.475 240.851 329.475 242.433 329.475 243.716 330.758 243.716 332.34Z" stroke="#FFFFFF" stroke-width="0.955" fill="#2CA02C" transform="scale(1.00011 1)"/><path d="M369.84 332.34C369.84 333.922 368.557 335.205 366.975 335.205 365.392 335.205 364.11 333.922 364.11 332.34 364.11 330.758 365.392 329.475 366.975 329.475 368.557 329.475 369.84 330.758 369.84 332.34Z" stroke="#FFFFFF" stroke-width="0.955" fill="#2CA02C" transform="scale(1.00011 1)"/><path d="M424.147 332.34C424.147 333.922 422.865 335.205 421.282 335.205 419.7 335.205 418.417 333.922 418.417 332.34 418.417 330.758 419.7 329.475 421.282 329.475 422.865 329.475 424.147 330.758 424.147 332.34Z" stroke="#FFFFFF" stroke-width="0.955" fill="#2CA02C" transform="scale(1.00011 1)"/><path d="M478.455 323.49C478.455 325.073 477.172 326.355 475.59 326.355 474.008 326.355 472.725 325.073 472.725 323.49 472.725 321.908 474.008 320.625 475.59 320.625 477.172 320.625 478.455 321.908 478.455 323.49Z" stroke="#FFFFFF" stroke-width="0.955" fill="#2CA02C" transform="scale(1.00011 1)"/><path d="M550.207 280.006C550.207 281.588 548.925 282.871 547.342 282.871 545.76 282.871 544.477 281.588 544.477 280.006 544.477 278.424 545.76 277.141 547.342 277.141 548.925 277.141 550.207 278.424 550.207 280.006Z" stroke="#FFFFFF" stroke-width="0.955" fill="#2CA02C" transform="scale(1.00011 1)"/><path d="M604.515 95.882C604.515 97.4643 603.232 98.747 601.65 98.747 600.068 98.747 598.785 97.4643 598.785 95.882 598.785 94.2997 600.068 93.017 601.65 93.017 603.232 93.017 604.515 94.2997 604.515 95.882Z" stroke="#FFFFFF" stroke-width="0.955" fill="#2CA02C" transform="scale(1.00011 1)"/><path d="M222.833 34.38 240.66 34.38" stroke="#1F77B4" stroke-width="2.54667" fill="none" transform="scale(1.00011 1)"/><text fill="#1F2933" font-family="Arial,Arial_MSFontService,sans-serif" font-weight="400" font-size="14" transform="matrix(0.636735 0 0 0.636667 245.78 38)">classic</text><path d="M286.5 34.38 304.327 34.38" stroke="#D62728" stroke-width="2.54667" fill="none" transform="scale(1.00011 1)"/><text fill="#1F2933" font-family="Arial,Arial_MSFontService,sans-serif" font-weight="400" font-size="14" transform="matrix(0.636735 0 0 0.636667 309.453 38)">flag</text><path d="M350.167 34.38 367.993 34.38" stroke="#2CA02C" stroke-width="2.54667" fill="none" transform="scale(1.00011 1)"/><text fill="#1F2933" font-family="Arial,Arial_MSFontService,sans-serif" font-weight="400" font-size="14" transform="matrix(0.636735 0 0 0.636667 373.127 38)">bound</text><text fill="#6B7280" font-family="Arial,Arial_MSFontService,sans-serif" font-weight="400" font-size="11" transform="matrix(0.636735 0 0 0.636667 498.563 377)">ось </text><text fill="#6B7280" font-family="Arial,Arial_MSFontService,sans-serif" font-weight="400" font-size="11" transform="matrix(0.636735 0 0 0.636667 511.935 377)">X</text><text fill="#6B7280" font-family="Arial,Arial_MSFontService,sans-serif" font-weight="400" font-size="11" transform="matrix(0.636735 0 0 0.636667 516.392 377)">: </text><text fill="#6B7280" font-family="Arial,Arial_MSFontService,sans-serif" font-weight="400" font-size="11" transform="matrix(0.636735 0 0 0.636667 520.212 377)">логарифмическая шкала</text></g></svg>