<svg width="624" height="382" xmlns="http://www.w3.org/2000/svg" xmlns:xlink="http://www.w3.org/1999/xlink" xml:space="preserve" overflow="hidden"><g><path d="M0 0 623.933 0 623.933 382 0 382Z" fill="#FFFFFF" transform="scale(1.00011 1)"/><text fill="#1F2933" font-family="Arial,Arial_MSFontService,sans-serif" font-weight="700" font-size="22" transform="matrix(0.636735 0 0 0.636667 142.31 20)">Время работы</text><text fill="#1F2933" font-family="Arial,Arial_MSFontService,sans-serif" font-weight="700" font-size="22" transform="matrix(0.636735 0 0 0.636667 241.004 20)">, </text><text fill="#1F2933" font-family="Arial,Arial_MSFontService,sans-serif" font-weight="700" font-size="22" transform="matrix(0.636735 0 0 0.636667 248.645 20)">мкс от размера массива </text><text fill="#1F2933" font-family="Arial,Arial_MSFontService,sans-serif" font-weight="700" font-size="22" transform="matrix(0.636735 0 0 0.636667 415.469 20)">(</text><text fill="#1F2933" font-family="Arial,Arial_MSFontService,sans-serif" font-weight="700" font-size="22" transform="matrix(0.636735 0 0 0.636667 419.927 20)">reversed</text><text fill="#1F2933" font-family="Arial,Arial_MSFontService,sans-serif" font-weight="700" font-size="22" transform="matrix(0.636735 0 0 0.636667 477.233 20)">)</text><path d="M60.4833 332.34 601.65 332.34" stroke="#1F2933" stroke-width="0.891333" fill="none" transform="scale(1.00011 1)"/><path d="M60.4833 44.5667 60.4833 332.34" stroke="#1F2933" stroke-width="0.891333" fill="none" transform="scale(1.00011 1)"/><path d="M60.4833 332.34 601.65 332.34" stroke="#D9DEE7" stroke-width="0.636667" fill="none" transform="scale(1.00011 1)"/><text fill="#4B5563" font-family="Arial,Arial_MSFontService,sans-serif" font-weight="400" font-size="13" transform="matrix(0.636735 0 0 0.636667 49.6653 336)">0</text><path d="M60.4833 274.785 601.65 274.785" stroke="#D9DEE7" stroke-width="0.636667" fill="none" transform="scale(1.00011 1)"/><text fill="#4B5563" font-family="Arial,Arial_MSFontService,sans-serif" font-weight="400" font-size="13" transform="matrix(0.636735 0 0 0.636667 36.2939 278)">100</text><text fill="#4B5563" font-family="Arial,Arial_MSFontService,sans-serif" font-weight="400" font-size="13" transform="matrix(0.636735 0 0 0.636667 49.6653 278)">k</text><path d="M60.4833 217.231 601.65 217.231" stroke="#D9DEE7" stroke-width="0.636667" fill="none" transform="scale(1.00011 1)"/><text fill="#4B5563" font-family="Arial,Arial_MSFontService,sans-serif" font-weight="400" font-size="13" transform="matrix(0.636735 0 0 0.636667 36.2939 220)">200</text><text fill="#4B5563" font-family="Arial,Arial_MSFontService,sans-serif" font-weight="400" font-size="13" transform="matrix(0.636735 0 0 0.636667 49.6653 220)">k</text><path d="M60.4833 159.676 601.65 159.676" stroke="#D9DEE7" stroke-width="0.636667" fill="none" transform="scale(1.00011 1)"/><text fill="#4B5563" font-family="Arial,Arial_MSFontService,sans-serif" font-weight="400" font-size="13" transform="matrix(0.636735 0 0 0.636667 36.2939 163)">300</text><text fill="#4B5563" font-family="Arial,Arial_MSFontService,sans-serif" font-weight="400" font-size="13" transform="matrix(0.636735 0 0 0.636667 49.6653 163)">k</text><path d="M60.4833 102.121 601.65 102.121" stroke="#D9DEE7" stroke-width="0.636667" fill="none" transform="scale(1.00011 1)"/><text fill="#4B5563" font-family="Arial,Arial_MSFontService,sans-serif" font-weight="400" font-size="13" transform="matrix(0.636735 0 0 0.636667 36.2939 105)">400</text><text fill="#4B5563" font-family="Arial,Arial_MSFontService,sans-serif" font-weight="400" font-size="13" transform="matrix(0.636735 0 0 0.636667 49.6653 105)">k</text><path d="M60.4833 44.5667 601.65 44.5667" stroke="#D9DEE7" stroke-width="0.636667" fill="none" transform="scale(1.00011 1)"/><text fill="#4B5563" font-family="Arial,Arial_MSFontService,sans-serif" font-weight="400" font-size="13" transform="matrix(0.636735 0 0 0.636667 36.2939 48)">500</text><text fill="#4B5563" font-family="Arial,Arial_MSFontService,sans-serif" font-weight="400" font-size="13" transform="matrix(0.636735 0 0 0.636667 49.6653 48)">k</text><path d="M60.4833 332.34 60.4833 336.797" stroke="#1F2933" stroke-width="0.636667" fill="none" transform="scale(1.00011 1)"/><text fill="#4B5563" font-family="Arial,Arial_MSFontService,sans-serif" font-weight="400" font-size="13" transform="matrix(0.636735 0 0 0.636667 56.0327 349)">10</text><path d="M240.851 332.34 240.851 336.797" stroke="#1F2933" stroke-width="0.636667" fill="none" transform="scale(1.00011 1)"/><text fill="#4B5563" font-family="Arial,Arial_MSFontService,sans-serif" font-weight="400" font-size="13" transform="matrix(0.636735 0 0 0.636667 234.191 349)">100</text><path d="M366.975 332.34 366.975 336.797" stroke="#1F2933" stroke-width="0.636667" fill="none" transform="scale(1.00011 1)"/><text fill="#4B5563" font-family="Arial,Arial_MSFontService,sans-serif" font-weight="400" font-size="13" transform="matrix(0.636735 0 0 0.636667 360.328 349)">500</text><path d="M421.282 332.34 421.282 336.797" stroke="#1F2933" stroke-width="0.636667" fill="none" transform="scale(1.00011 1)"/><text fill="#4B5563" font-family="Arial,Arial_MSFontService,sans-serif" font-weight="400" font-size="13" transform="matrix(0.636735 0 0 0.636667 412.413 349)">1000</text><path d="M475.59 332.34 475.59 336.797" stroke="#1F2933" stroke-width="0.636667" fill="none" transform="scale(1.00011 1)"/><text fill="#4B5563" font-family="Arial,Arial_MSFontService,sans-serif" font-weight="400" font-size="13" transform="matrix(0.636735 0 0 0.636667 466.727 349)">2000</text><path d="M547.342 332.34 547.342 336.797" stroke="#1F2933" stroke-width="0.636667" fill="none" transform="scale(1.00011 1)"/><text fill="#4B5563" font-family="Arial,Arial_MSFontService,sans-serif" font-weight="400" font-size="13" transform="matrix(0.636735 0 0 0.636667 538.487 349)">5000</text><path d="M601.65 332.34 601.65 336.797" stroke="#1F2933" stroke-width="0.636667" fill="none" transform="scale(1.00011 1)"/><text fill="#4B5563" font-family="Arial,Arial_MSFontService,sans-serif" font-weight="400" font-size="13" transform="matrix(0.636735 0 0 0.636667 590.571 349)">10000</text><text fill="#1F2933" font-family="Arial,Arial_MSFontService,sans-serif" font-weight="700" font-size="16" transform="matrix(0.636735 0 0 0.636667 284.302 368)">Размер массива</text><text fill="#1F2933" font-family="Arial,Arial_MSFontService,sans-serif" font-weight="700" font-size="16" transform="matrix(0.636735 0 0 0.636667 366.441 368)">, </text><text fill="#1F2933" font-family="Arial,Arial_MSFontService,sans-serif" font-weight="700" font-size="16" transform="matrix(0.636735 0 0 0.636667 371.535 368)">n</text><text fill="#1F2933" font-family="Arial,Arial_MSFontService,sans-serif" font-weight="700" font-size="16" transform="matrix(3.89887e-17 -0.636667 0.636735 3.89846e-17 15.2816 237)">Время работы</text><text fill="#1F2933" font-family="Arial,Arial_MSFontService,sans-serif" font-weight="700" font-size="16" transform="matrix(3.89887e-17 -0.636667 0.636735 3.89846e-17 15.2816 163)">, </text><text fill="#1F2933" font-family="Arial,Arial_MSFontService,sans-serif" font-weight="700" font-size="16" transform="matrix(3.89887e-17 -0.636667 0.636735 3.89846e-17 15.2816 158)">мкс</text><path d="M60.4833 332.34 240.851 332.34 366.975 332.34 421.282 332.34 475.59 322.726 547.342 271.538 601.65 83.1487" stroke="#1F77B4" stroke-width="1.91" fill="none" transform="scale(1.00011 1)"/><path d="M63.3483 332.34C63.3483 333.922 62.0656 335.205 60.4833 335.205 58.901 335.205 57.6183 333.922 57.6183 332.34 57.6183 330.758 58.901 329.475 60.4833 329.475 62.0656 329.475 63.3483 330.758 63.3483 332.34Z" stroke="#FFFFFF" stroke-width="0.955" fill="#1F77B4" transform="scale(1.00011 1)"/><path d="M243.716 332.34C243.716 333.922 242.433 335.205 240.851 335.205 239.269 335.205 237.986 333.922 237.986 332.34 237.986 330.758 239.269 329.475 240.851 329.475 242.433 329.475 243.716 330.758 243.716 332.34Z" stroke="#FFFFFF" stroke-width="0.955" fill="#1F77B4" transform="scale(1.00011 1)"/><path d="M369.84 332.34C369.84 333.922 368.557 335.205 366.975 335.205 365.392 335.205 364.11 333.922 364.11 332.34 364.11 330.758 365.392 329.475 366.975 329.475 368.557 329.475 369.84 330.758 369.84 332.34Z" stroke="#FFFFFF" stroke-width="0.955" fill="#1F77B4" transform="scale(1.00011 1)"/><path d="M424.147 332.34C424.147 333.922 422.865 335.205 421.282 335.205 419.7 335.205 418.417 333.922 418.417 332.34 418.417 330.758 419.7 329.475 421.282 329.475 422.865 329.475 424.147 330.758 424.147 332.34Z" stroke="#FFFFFF" stroke-width="0.955" fill="#1F77B4" transform="scale(1.00011 1)"/><path d="M478.455 322.726C478.455 324.309 477.172 325.591 475.59 325.591 474.008 325.591 472.725 324.309 472.725 322.726 472.725 321.144 474.008 319.861 475.59 319.861 477.172 319.861 478.455 321.144 478.455 322.726Z" stroke="#FFFFFF" stroke-width="0.955" fill="#1F77B4" transform="scale(1.00011 1)"/><path d="M550.207 271.538C550.207 273.121 548.925 274.403 547.342 274.403 545.76 274.403 544.477 273.121 544.477 271.538 544.477 269.956 545.76 268.673 547.342 268.673 548.925 268.673 550.207 269.956 550.207 271.538Z" stroke="#FFFFFF" stroke-width="0.955" fill="#1F77B4" transform="scale(1.00011 1)"/><path d="M604.515 83.1487C604.515 84.731 603.232 86.0137 601.65 86.0137 600.068 86.0137 598.785 84.731 598.785 83.1487 598.785 81.5664 600.068 80.2837 601.65 80.2837 603.232 80.2837 604.515 81.5664 604.515 83.1487Z" stroke="#FFFFFF" stroke-width="0.955" fill="#1F77B4" transform="scale(1.00011 1)"/><path d="M60.4833 332.34 240.851 332.34 366.975 332.34 421.282 324.445 475.59 323.108 547.342 268.291 601.65 62.075" stroke="#D62728" stroke-width="1.91" fill="none" transform="scale(1.00011 1)"/><path d="M63.3483 332.34C63.3483 333.922 62.0656 335.205 60.4833 335.205 58.901 335.205 57.6183 333.922 57.6183 332.34 57.6183 330.758 58.901 329.475 60.4833 329.475 62.0656 329.475 63.3483 330.758 63.3483 332.34Z" stroke="#FFFFFF" stroke-width="0.955" fill="#D62728" transform="scale(1.00011 1)"/><path d="M243.716 332.34C243.716 333.922 242.433 335.205 240.851 335.205 239.269 335.205 237.986 333.922 237.986 332.34 237.986 330.758 239.269 329.475 240.851 329.475 242.433 329.475 243.716 330.758 243.716 332.34Z" stroke="#FFFFFF" stroke-width="0.955" fill="#D62728" transform="scale(1.00011 1)"/><path d="M369.84 332.34C369.84 333.922 368.557 335.205 366.975 335.205 365.392 335.205 364.11 333.922 364.11 332.34 364.11 330.758 365.392 329.475 366.975 329.475 368.557 329.475 369.84 330.758 369.84 332.34Z" stroke="#FFFFFF" stroke-width="0.955" fill="#D62728" transform="scale(1.00011 1)"/><path d="M424.147 324.445C424.147 326.028 422.865 327.31 421.282 327.31 419.7 327.31 418.417 326.028 418.417 324.445 418.417 322.863 419.7 321.58 421.282 321.58 422.865 321.58 424.147 322.863 424.147 324.445Z" stroke="#FFFFFF" stroke-width="0.955" fill="#D62728" transform="scale(1.00011 1)"/><path d="M478.455 323.108C478.455 324.691 477.172 325.973 475.59 325.973 474.008 325.973 472.725 324.691 472.725 323.108 472.725 321.526 474.008 320.243 475.59 320.243 477.172 320.243 478.455 321.526 478.455 323.108Z" stroke="#FFFFFF" stroke-width="0.955" fill="#D62728" transform="scale(1.00011 1)"/><path d="M550.207 268.291C550.207 269.874 548.925 271.156 547.342 271.156 545.76 271.156 544.477 269.874 544.477 268.291 544.477 266.709 545.76 265.426 547.342 265.426 548.925 265.426 550.207 266.709 550.207 268.291Z" stroke="#FFFFFF" stroke-width="0.955" fill="#D62728" transform="scale(1.00011 1)"/><path d="M604.515 62.075C604.515 63.6573 603.232 64.94 601.65 64.94 600.068 64.94 598.785 63.6573 598.785 62.075 598.785 60.4927 600.068 59.21 601.65 59.21 603.232 59.21 604.515 60.4927 604.515 62.075Z" stroke="#FFFFFF" stroke-width="0.955" fill="#D62728" transform="scale(1.00011 1)"/><path d="M60.4833 332.34 240.851 332.34 366.975 332.34 421.282 332.34 475.59 317.888 547.342 270.456 601.65 79.7743" stroke="#2CA02C" stroke-width="1.91" fill="none" transform="scale(1.00011 1)"/><path d="M63.3483 332.34C63.3483 333.922 62.0656 335.205 60.4833 335.205 58.901 335.205 57.6183 333.922 57.6183 332.34 57.6183 330.758 58.901 329.475 60.4833 329.475 62.0656 329.475 63.3483 330.758 63.3483 332.34Z" stroke="#FFFFFF" stroke-width="0.955" fill="#2CA02C" transform="scale(1.00011 1)"/><path d="M243.716 332.34C243.716 333.922 242.433 335.205 240.851 335.205 239.269 335.205 237.986 333.922 237.986 332.34 237.986 330.758 239.269 329.475 240.851 329.475 242.433 329.475 243.716 330.758 243.716 332.34Z" stroke="#FFFFFF" stroke-width="0.955" fill="#2CA02C" transform="scale(1.00011 1)"/><path d="M369.84 332.34C369.84 333.922 368.557 335.205 366.975 335.205 365.392 335.205 364.11 333.922 364.11 332.34 364.11 330.758 365.392 329.475 366.975 329.475 368.557 329.475 369.84 330.758 369.84 332.34Z" stroke="#FFFFFF" stroke-width="0.955" fill="#2CA02C" transform="scale(1.00011 1)"/><path d="M424.147 332.34C424.147 333.922 422.865 335.205 421.282 335.205 419.7 335.205 418.417 333.922 418.417 332.34 418.417 330.758 419.7 329.475 421.282 329.475 422.865 329.475 424.147 330.758 424.147 332.34Z" stroke="#FFFFFF" stroke-width="0.955" fill="#2CA02C" transform="scale(1.00011 1)"/><path d="M478.455 317.888C478.455 319.47 477.172 320.753 475.59 320.753 474.008 320.753 472.725 319.47 472.725 317.888 472.725 316.305 474.008 315.023 475.59 315.023 477.172 315.023 478.455 316.305 478.455 317.888Z" stroke="#FFFFFF" stroke-width="0.955" fill="#2CA02C" transform="scale(1.00011 1)"/><path d="M550.207 270.456C550.207 272.038 548.925 273.321 547.342 273.321 545.76 273.321 544.477 272.038 544.477 270.456 544.477 268.874 545.76 267.591 547.342 267.591 548.925 267.591 550.207 268.874 550.207 270.456Z" stroke="#FFFFFF" stroke-width="0.955" fill="#2CA02C" transform="scale(1.00011 1)"/><path d="M604.515 79.7743C604.515 81.3566 603.232 82.6393 601.65 82.6393 600.068 82.6393 598.785 81.3566 598.785 79.7743 598.785 78.192 600.068 76.9093 601.65 76.9093 603.232 76.9093 604.515 78.192 604.515 79.7743Z" stroke="#FFFFFF" stroke-width="0.955" fill="#2CA02C" transform="scale(1.00011 1)"/><path d="M222.833 34.38 240.66 34.38" stroke="#1F77B4" stroke-width="2.54667" fill="none" transform="scale(1.00011 1)"/><text fill="#1F2933" font-family="Arial,Arial_MSFontService,sans-serif" font-weight="400" font-size="14" transform="matrix(0.636735 0 0 0.636667 245.78 38)">classic</text><path d="M286.5 34.38 304.327 34.38" stroke="#D62728" stroke-width="2.54667" fill="none" transform="scale(1.00011 1)"/><text fill="#1F2933" font-family="Arial,Arial_MSFontService,sans-serif" font-weight="400" font-size="14" transform="matrix(0.636735 0 0 0.636667 309.453 38)">flag</text><path d="M350.167 34.38 367.993 34.38" stroke="#2CA02C" stroke-width="2.54667" fill="none" transform="scale(1.00011 1)"/><text fill="#1F2933" font-family="Arial,Arial_MSFontService,sans-serif" font-weight="400" font-size="14" transform="matrix(0.636735 0 0 0.636667 373.127 38)">bound</text><text fill="#6B7280" font-family="Arial,Arial_MSFontService,sans-serif" font-weight="400" font-size="11" transform="matrix(0.636735 0 0 0.636667 498.563 377)">ось </text><text fill="#6B7280" font-family="Arial,Arial_MSFontService,sans-serif" font-weight="400" font-size="11" transform="matrix(0.636735 0 0 0.636667 511.935 377)">X</text><text fill="#6B7280" font-family="Arial,Arial_MSFontService,sans-serif" font-weight="400" font-size="11" transform="matrix(0.636735 0 0 0.636667 516.392 377)">: </text><text fill="#6B7280" font-family="Arial,Arial_MSFontService,sans-serif" font-weight="400" font-size="11" transform="matrix(0.636735 0 0 0.636667 520.212 377)">логарифмическая шкала</text></g></svg>